<?xml version="1.0" encoding="UTF-8" standalone="no"?>
<!-- Generator: Adobe Illustrator 17.0.0, SVG Export Plug-In . SVG Version: 6.00 Build 0)  -->

<svg
   xmlns:dc="http://purl.org/dc/elements/1.1/"
   xmlns:cc="http://creativecommons.org/ns#"
   xmlns:rdf="http://www.w3.org/1999/02/22-rdf-syntax-ns#"
   xmlns:svg="http://www.w3.org/2000/svg"
   xmlns="http://www.w3.org/2000/svg"
   xmlns:sodipodi="http://sodipodi.sourceforge.net/DTD/sodipodi-0.dtd"
   xmlns:inkscape="http://www.inkscape.org/namespaces/inkscape"
   version="1.1"
   id="Layer_1"
   x="0px"
   y="0px"
   width="150"
   height="150"
   viewBox="0 0 150 150"
   enable-background="new 0 0 610 240"
   xml:space="preserve"
   inkscape:version="0.91 r13725"
   sodipodi:docname="logo_wordmark.svg"><metadata
     id="metadata34"><rdf:RDF><cc:Work
         rdf:about=""><dc:format>image/svg+xml</dc:format><dc:type
           rdf:resource="http://purl.org/dc/dcmitype/StillImage" /><dc:title></dc:title></cc:Work></rdf:RDF></metadata><defs
     id="defs32" /><sodipodi:namedview
     pagecolor="#ffffff"
     bordercolor="#666666"
     borderopacity="1"
     objecttolerance="10"
     gridtolerance="10"
     guidetolerance="10"
     inkscape:pageopacity="0"
     inkscape:pageshadow="2"
     inkscape:window-width="480"
     inkscape:window-height="480"
     id="namedview30"
     showgrid="false"
     fit-margin-left="20"
     fit-margin-right="20"
     fit-margin-top="20"
     fit-margin-bottom="20"
     inkscape:zoom="0.51639344"
     inkscape:cx="227.977"
     inkscape:cy="76.853013"
     inkscape:window-x="0"
     inkscape:window-y="23"
     inkscape:window-maximized="0"
     inkscape:current-layer="Layer_1" /><g
     id="_x33_20-mark-blue"
     transform="translate(-77.023,-38.583)"><g
       id="g4"><g
         id="g6"><g
           id="g8"><path
             d="m 136.397,58.657 -39.374,22.753 0,52.08 0,0 c 0,23.935 19.428,43.363 43.363,43.363 7.904,0 15.365,-2.142 21.718,-5.836 l 0,0 31.987,-18.468 c 12.558,-6.575 21.201,-19.724 21.201,-34.942 l 0,-54.444 0,0 0,0 -7.904,-4.58 -31.544,18.173 0,0 0,0 0,56.66 c 0,2.438 -0.222,4.802 -0.739,7.166 -0.443,2.29 -1.182,4.506 -2.068,6.649 -0.222,0.517 -0.517,1.108 -0.739,1.625 -0.96,-0.074 -1.921,-0.222 -2.807,-0.443 -1.995,-0.443 -3.989,-1.034 -5.91,-1.847 -1.847,-0.813 -3.694,-1.773 -5.319,-2.881 -1.699,-1.108 -3.25,-2.438 -4.654,-3.841 -1.404,-1.404 -2.733,-3.029 -3.841,-4.654 -1.108,-1.699 -2.142,-3.472 -2.881,-5.319 -0.813,-1.921 -1.404,-3.915 -1.847,-5.91 -0.443,-2.068 -0.665,-4.211 -0.665,-6.353 l 0,0 0,-54.444 -7.977,-4.507 z m 17.73,107.559 c -2.142,0.886 -4.358,1.625 -6.649,2.068 -2.364,0.443 -4.728,0.739 -7.166,0.739 -2.438,0 -4.802,-0.222 -7.166,-0.739 -2.29,-0.443 -4.506,-1.182 -6.649,-2.068 -2.068,-0.886 -4.137,-1.995 -5.984,-3.25 -1.847,-1.256 -3.62,-2.733 -5.245,-4.358 -1.625,-1.625 -3.029,-3.398 -4.358,-5.245 -1.256,-1.921 -2.364,-3.915 -3.25,-5.984 -0.886,-2.142 -1.625,-4.358 -2.068,-6.649 -0.443,-2.364 -0.739,-4.728 -0.739,-7.166 l 0,-47.574 31.544,-18.173 0,49.864 0,0 c 0,18.985 13.371,34.794 31.248,38.561 -0.665,0.813 -1.404,1.625 -2.216,2.438 -1.625,1.625 -3.398,3.029 -5.245,4.358 -1.92,1.183 -3.915,2.291 -6.057,3.178 z m 52.597,-42.255 c -0.443,1.995 -1.034,3.989 -1.847,5.91 -0.813,1.847 -1.773,3.694 -2.881,5.319 -1.108,1.699 -2.438,3.25 -3.841,4.654 -1.404,1.404 -3.029,2.733 -4.654,3.841 -1.699,1.108 -3.472,2.142 -5.319,2.881 -1.921,0.813 -3.915,1.404 -5.91,1.847 -0.443,0.074 -0.813,0.148 -1.256,0.222 1.773,-4.728 2.733,-9.825 2.733,-15.218 l 0,0 0,-52.155 0,0 23.639,-13.666 0,49.864 c -0.073,2.29 -0.295,4.432 -0.664,6.501 z"
             id="path10"
             inkscape:connector-curvature="0"
             style="fill:#02b3e4" /></g></g></g></g><g
     id="_x33_20-mark-slate"
     display="none"
     style="display:none"
     transform="translate(-77.023,-38.583)"></g></svg>
